<?xml version="1.0" encoding="UTF-8"?>
<svg id="Layer_1" xmlns="http://www.w3.org/2000/svg" xmlns:xlink="http://www.w3.org/1999/xlink" viewBox="0 0 3694.53 983.61">
  <defs>
    <style>
      .cls-1 {
        fill: url(#New_Gradient_Swatch_1-4);
      }

      .cls-2 {
        fill: url(#New_Gradient_Swatch_1-3);
      }

      .cls-3 {
        fill: url(#New_Gradient_Swatch_1-8);
      }

      .cls-4 {
        fill: url(#New_Gradient_Swatch_1-7);
      }

      .cls-5 {
        fill: url(#New_Gradient_Swatch_1-6);
      }

      .cls-6 {
        fill: url(#New_Gradient_Swatch_2-2);
      }

      .cls-7 {
        fill: url(#New_Gradient_Swatch_2);
      }

      .cls-8 {
        fill: url(#New_Gradient_Swatch_2-4);
      }

      .cls-9 {
        fill: url(#New_Gradient_Swatch_1-2);
      }

      .cls-10 {
        fill: url(#New_Gradient_Swatch_1-9);
      }

      .cls-11 {
        fill: url(#New_Gradient_Swatch_2-5);
      }

      .cls-12 {
        fill: url(#New_Gradient_Swatch_1-5);
      }

      .cls-13 {
        fill: url(#New_Gradient_Swatch_2-6);
      }

      .cls-14 {
        fill: url(#New_Gradient_Swatch_1);
      }

      .cls-15 {
        fill: url(#New_Gradient_Swatch_2-3);
      }
    </style>
    <linearGradient id="New_Gradient_Swatch_2" data-name="New Gradient Swatch 2" x1="560.23" y1="661.29" x2="776.22" y2="287.19" gradientTransform="translate(0 938.36) scale(1 -1)" gradientUnits="userSpaceOnUse">
      <stop offset=".26" stop-color="#fdd553"/>
      <stop offset="1" stop-color="#744c1e"/>
    </linearGradient>
    <linearGradient id="New_Gradient_Swatch_1" data-name="New Gradient Swatch 1" x1="156.87" y1="287.15" x2="547.06" y2="962.98" gradientUnits="userSpaceOnUse">
      <stop offset=".26" stop-color="#fdd553"/>
      <stop offset="1" stop-color="#744c1e"/>
    </linearGradient>
    <linearGradient id="New_Gradient_Swatch_2-2" data-name="New Gradient Swatch 2" x1="329.63" y1="85.09" x2="436.37" y2="85.09" xlink:href="#New_Gradient_Swatch_2"/>
    <linearGradient id="New_Gradient_Swatch_2-3" data-name="New Gradient Swatch 2" x1="374.59" y1="113.46" x2="460.8" y2="113.46" xlink:href="#New_Gradient_Swatch_2"/>
    <linearGradient id="New_Gradient_Swatch_2-4" data-name="New Gradient Swatch 2" x1="341.61" y1="983.2" x2="342" y2="983.2" gradientTransform="matrix(1,0,0,1,0,0)" xlink:href="#New_Gradient_Swatch_2"/>
    <linearGradient id="New_Gradient_Swatch_2-5" data-name="New Gradient Swatch 2" x1="0" y1="458.13" x2="515.06" y2="458.13" gradientTransform="matrix(1,0,0,1,0,0)" xlink:href="#New_Gradient_Swatch_2"/>
    <linearGradient id="New_Gradient_Swatch_1-2" data-name="New Gradient Swatch 1" x1="888.02" y1="207.97" x2="1125.64" y2="619.54" xlink:href="#New_Gradient_Swatch_1"/>
    <linearGradient id="New_Gradient_Swatch_2-6" data-name="New Gradient Swatch 2" x1="1838.21" y1="207.97" x2="2075.84" y2="619.54" gradientTransform="matrix(1,0,0,1,0,0)" xlink:href="#New_Gradient_Swatch_2"/>
    <linearGradient id="New_Gradient_Swatch_1-3" data-name="New Gradient Swatch 1" x1="1165.07" y1="272.57" x2="1409.76" y2="696.38" xlink:href="#New_Gradient_Swatch_1"/>
    <linearGradient id="New_Gradient_Swatch_1-4" data-name="New Gradient Swatch 1" x1="1497.21" y1="223.67" x2="1730.39" y2="627.55" xlink:href="#New_Gradient_Swatch_1"/>
    <linearGradient id="New_Gradient_Swatch_1-5" data-name="New Gradient Swatch 1" x1="2196.63" y1="223.44" x2="2460.1" y2="679.77" xlink:href="#New_Gradient_Swatch_1"/>
    <linearGradient id="New_Gradient_Swatch_1-6" data-name="New Gradient Swatch 1" x1="2567.79" y1="247.32" x2="2812.92" y2="671.9" xlink:href="#New_Gradient_Swatch_1"/>
    <linearGradient id="New_Gradient_Swatch_1-7" data-name="New Gradient Swatch 1" x1="2888.05" y1="289.72" x2="3084.91" y2="630.69" xlink:href="#New_Gradient_Swatch_1"/>
    <linearGradient id="New_Gradient_Swatch_1-8" data-name="New Gradient Swatch 1" x1="3124.99" y1="271.25" x2="3337" y2="638.46" xlink:href="#New_Gradient_Swatch_1"/>
    <linearGradient id="New_Gradient_Swatch_1-9" data-name="New Gradient Swatch 1" x1="3362.6" y1="337.41" x2="3587.33" y2="726.66" xlink:href="#New_Gradient_Swatch_1"/>
  </defs>
  <path class="cls-7" d="M670.12,630.21c-1.01,0-2.03,0-3.04-.02-28.99-.36-82.96-1.01-129.33-39.99-24.75-20.8-43.34-49.21-53.76-82.18-5.94-18.76-9.1-39.97-9.4-63.07-.19-14.67,1.03-26.42,1.78-32.13,2.09-16.05,7.01-53.63,33.85-90.18,8.73-11.88,28.17-34.36,60.23-51.33,35.6-18.84,68.82-21.26,93.77-21.26,2.23,0,4.35.02,6.37.03,34.24.33,67.75,7.85,99.59,22.33l2.88,1.31-.93,81.56-22.08,2.53-.95-4.26c-2.22-9.92-11.5-43.42-37.54-58.16-11.5-6.51-27.29-9.93-27.45-9.96-7.09-1.51-14.85-2.31-22.45-2.31-2.06,0-4.14.05-6.17.17-6.68.39-30.16,2.7-51.75,16.33-33.49,21.14-43.52,57.95-50.17,82.32-9.9,36.29-6.21,66.94-4,85.24,1.34,11.13,3.17,26.36,10.13,45.07,5.86,15.73,13.89,37.29,34.53,55.73,28.35,25.34,62.53,28.44,75.91,28.6,1.63.02,3.36.04,5.17.04,15.93,0,34.58-1.78,52.06-14.98,23.57-17.78,29.21-44.58,30.54-55.26l.6-4.83,24.5,3.15-13.76,85.31-2.53,1.04c-31.17,12.73-63.66,19.19-96.58,19.19h-.01v-.02Z"/>
  <path class="cls-14" d="M528.15,600.38c-25.45-21.39-44.57-50.59-55.28-84.43-6.08-19.21-9.31-40.9-9.63-64.47-.04-2.9-.02-5.69.04-8.35-25.75-25.64-49.94-43.16-63.17-52.74-38.62-27.96-72.71-43.56-126.11-90.04-23-20.03-40.71-38.05-52.41-50.56-.89,3.08-1.56,6.15-2.06,9.22-11.54,71.78,80.55,141.25,115.54,165.56-26.84-12.57-57.55-29.59-89.42-52.73-18.82-13.65-35.31-27.47-49.64-40.7-.29,7.11.1,13.85.99,20.19,11.42,80.67,109.3,125.09,134.67,135.82-26.76-8.7-56.29-20.33-87.26-36.08-13.87-7.05-26.81-14.3-38.85-21.58,1.22,6.39,2.91,12.35,4.93,17.88,25.07,68.71,109.13,94.35,137.52,101.76-22.3-1.14-49.81-5-79.86-15.11-11.48-3.86-21.97-8.18-31.45-12.64,2.18,9.09,5.4,16.74,8.95,23.13,31.05,55.87,112.41,59.44,124.87,59.82-8.16,1.17-17.85,2.05-28.75,2.05-7.46,0-15.49-.42-23.98-1.44-14.33-1.72-26.77-4.77-37-8.02,3.1,8.35,7.06,15.03,11.1,20.35,23.66,31.13,65.69,36.38,91.56,36.38,10.62,0,18.51-.87,21.29-1.22-10.47,2.71-23.73,5.18-39.16,5.86-2.86.13-5.64.18-8.35.18-10.48,0-19.81-.86-27.72-2.03,2.71,5.1,5.77,9.4,8.95,13.03,19.66,22.46,50.49,27.24,73.43,27.24,13.41,0,24.12-1.64,28.32-2.33-8.09,2.84-18.63,5.7-31.14,7.09-5.55.62-10.77.86-15.57.86-4.54,0-8.73-.22-12.49-.55,2.31,3.7,4.83,6.85,7.42,9.55,16.16,16.82,39.64,20.75,58.21,20.75,12.27,0,22.39-1.71,26.86-2.55-6.45,3.11-15.18,6.53-25.9,8.63-7.8,1.53-14.83,2.01-20.68,2.01h-1.21c2.16,2.64,4.45,4.94,6.79,6.94,12.78,10.88,29.2,14.31,44.87,14.31,21.61,0,41.8-6.53,49.17-9.08-2.24,24.02-11.48,88.34-61.66,148.31-45.09,53.88-98.94,75.22-122.26,82.95,27.38-6.09,81.53-22.08,131.51-67.52,72.89-66.28,87.11-149.94,91.58-178.83,6.62-42.81,3.67-81.71-3.26-114.73-11.55-5.57-23.12-12.77-34.29-22.15Z"/>
  <path class="cls-6" d="M329.63,781.46c6.57-2.24,27.05-8.31,50.76-.12,23.27,8.04,35.22,24.83,40.11,31.89,17.09,24.72,16.1,50.31,15.69,56.6-2.2,33.85-23.06,54.76-28.06,59.51,2.12-5.28,20.09-52.52-7.63-98.05-23.81-39.1-63.9-48.35-70.88-49.84h0Z"/>
  <path class="cls-15" d="M374.6,768.39c6.81-1.91,34.98-9.01,57.81,6.25,28.54,19.08,38.74,66.41,15.72,110.08.74-7.64,4.73-56.85-30.94-91.62-15.14-14.76-31.88-21.51-42.61-24.7h.01Z"/>
  <g>
    <path class="cls-8" d="M341.98,983.11c-.13.06-.25.12-.38.18.13-.03.27-.06.4-.09l-.02-.08Z"/>
    <path class="cls-11" d="M291.34,728.38c-3.7,0-7.13-.15-10.24-.39,24.59,22.36,45.81,28.41,61.05,29.6,2.09.16,4.1.24,6.03.24,16.96,0,28.43-5.63,45.39-5.63,4.92,0,10.31.47,16.41,1.69,8.07,1.61,26.25,5.23,40.7,19.11,22.18,21.29,21.75,53.39,21.58,65.68-.35,26.17-13.2,52.9-35.39,77.58,6.99-6.63,13.88-13.88,20.56-21.85,38.71-46.26,52.66-96.12,57.64-128.46-11,2.85-24.13,5.18-37.7,5.18-20.98,0-38.2-5.59-51.16-16.63-2.89-2.45-5.59-5.21-8.02-8.19l-8.47-10.38c-11.18-3.99-20.71-9.98-28.29-17.86-3.23-3.36-6.14-7.1-8.65-11.13l-4.39-7.03c-13.57-4.56-26.73-12.05-37.22-24.03-3.93-4.49-7.36-9.49-10.22-14.87l-6.74-12.72c-12.15-6.42-22.21-14.83-30.02-25.11-5.19-6.83-9.39-14.53-12.48-22.86l-6.91-18.64,1.74.55c-12.45-9.23-22.32-20.31-29.36-32.98-4.39-7.9-7.72-16.51-9.9-25.58l-4.72-19.65,18.29,8.6c5.43,2.55,10.96,4.94,16.55,7.15-23.91-16.62-45.07-39.02-56.02-69.03-2.29-6.25-4.09-12.77-5.35-19.38l-4.11-21.43,18.67,11.3c6.15,3.71,12.41,7.34,18.72,10.86-23.84-24.34-37.91-50.93-41.94-79.35-1.01-7.2-1.38-14.58-1.08-21.95l.85-20.99,15.43,14.26c14.95,13.79,30.83,26.86,47.24,38.86-29.12-33.94-42.8-66.55-40.82-97.1-56.55-43.02-131.3-116.17-162.54-225.09C42.48,26.87,39.45,13.27,37.2.02v-.02c-8.37,16.48-13.42,32.18-16.34,46.56-26.59,131.13,104.5,248.79,123.95,265.79-27.29-15.19-65.48-41.06-100.21-83.25-18.05-21.94-31.17-43.4-40.7-61.98C.93,179.96-.15,191.92.02,202.88c1.63,110.48,129.85,183.51,150.98,195.18-30.08-11.88-67.15-30.63-104.22-60.75-13.71-11.14-25.67-22.41-36.08-33.3-.68,11.94.27,22.73,2.16,32.38,18.6,94.87,140.35,137.5,159.72,143.99-23.9-2.94-56.45-10.06-90.96-28.06-13.78-7.19-25.66-14.96-35.76-22.51,1.92,10.83,4.99,20.35,8.63,28.67,34.94,79.76,143.56,97.02,163.72,99.9-6.41.56-13.53.93-21.26.93-17.67,0-38.49-1.94-61.07-8.02-12.72-3.42-24.05-7.64-33.92-12.02,2.59,9.04,6.13,16.72,10.04,23.21,33.51,55.73,115.1,59.81,140.45,59.81,2.55,0,4.53-.04,5.84-.08-10.6,1.8-23.45,3.23-38.07,3.23-2.68,0-5.4-.05-8.18-.15-20.31-.73-37.58-4.11-50.87-7.71,6.22,9.74,24.08,34.88,58.28,49.64,19.19,8.29,37.3,10.61,51.69,10.61,12.59,0,22.36-1.77,27.55-2.89-8.75,2.67-19.91,5.2-32.99,6.16-3.83.28-7.54.41-11.1.41-12.89,0-23.9-1.65-32.38-3.5,5.64,8.22,20.01,26.74,45.94,37.62,14.42,6.05,28.25,8,40.11,8,16.78,0,29.6-3.9,34.5-5.53-8.18,3.4-19.25,7.05-32.69,8.95-6.79.96-13.08,1.32-18.73,1.32Z"/>
  </g>
  <path class="cls-9" d="M798.14,259.86v18.75c4.57.89,18.02,3.77,28.82,10.18,7.38,4.37,9.86,8.21,10.93,11.46.37,1.13.55,2.12.64,2.79v224.71c.06.9.15,2.18.32,3.71,4.97,44.9,47.8,73.15,53.82,77,32.92,21.05,66.35,19.65,86.86,18.79,23-.97,77.4-3.33,110.71-45.64,17.76-22.56,22.22-47.2,23.57-60.43-1.4-123.49-.12-214.5,2-218.14,2.82-4.84,6.43-8.14,6.43-8.14,0,0,0,0,0,0,12.62-13,29.42-16.52,40.29-17.57-.07-5.57-.14-11.14-.21-16.71-42.64-.21-85.29-.43-127.93-.64.1,6.4.19,12.81.29,19.21,9.57.61,29.03,3.39,42.71,18.29,1.8,1.95,3.36,3.97,4.71,6-.18,173.07-.25,212.3-.29,212.43,0,0,0,0,0,0-7.86,45.59-48.28,78.09-92.57,76.14-40.94-1.8-76.39-32.64-84.29-74.5-.05-70.6-.1-141.19-.14-211.79.16-.93.37-1.82.64-2.68,5.57-17.7,34.53-22.83,43.78-24.17.1-6.38.19-12.76.29-19.14-50.46.04-100.93.07-151.39.11Z"/>
  <path class="cls-13" d="M1748.34,259.86v18.75c4.57.89,18.02,3.77,28.82,10.18,7.38,4.37,9.86,8.21,10.93,11.46.37,1.13.55,2.12.64,2.79v224.71c.06.9.15,2.18.32,3.71,4.97,44.9,47.8,73.15,53.82,77,32.92,21.05,66.35,19.65,86.86,18.79,23-.97,77.4-3.33,110.71-45.64,17.76-22.56,22.22-47.2,23.57-60.43-1.4-123.49-.12-214.5,2-218.14,2.82-4.84,6.43-8.14,6.43-8.14,0,0,0,0,0,0,12.62-13,29.42-16.52,40.29-17.57-.07-5.57-.14-11.14-.21-16.71-42.64-.21-85.29-.43-127.93-.64.1,6.4.19,12.81.29,19.21,9.57.61,29.03,3.39,42.71,18.29,1.8,1.95,3.36,3.97,4.71,6-.18,173.07-.25,212.3-.29,212.43,0,0,0,0,0,0-7.86,45.59-48.28,78.09-92.57,76.14-40.94-1.8-76.39-32.64-84.29-74.5-.05-70.6-.1-141.19-.14-211.79.16-.93.37-1.82.64-2.68,5.57-17.7,34.53-22.83,43.78-24.17.1-6.38.19-12.76.29-19.14-50.46.04-100.93.07-151.39.11Z"/>
  <path class="cls-2" d="M1186.53,260.18v18.43c6.87.81,18.51,3.22,29.89,11.38,4.3,3.08,7.69,6.35,10.33,9.34.02,94.9.05,189.81.07,284.71-1.21,1.46-2.57,2.9-4.07,4.29-12.05,11.12-27.45,13.09-36.21,13.36-.05,6.12-.1,12.24-.14,18.36,89.14-.1,178.29-.19,267.43-.29,2.67-31.48,5.33-62.95,8-94.43h-15.71c-3.96,13.85-14.6,42.79-41.86,57.71-3.38,1.85-6.77,3.35-10.14,4.57h-101.14c.14-94.1.29-188.19.43-282.29,2.26-3.17,5.16-6.58,8.86-9.86,12.91-11.44,27.74-14.29,35.29-15.14v-19.57c-50.33-.19-100.67-.38-151-.57Z"/>
  <path class="cls-1" d="M1433.61,260.39c-.43,28.93-.86,57.86-1.29,86.79,5.5.07,11,.14,16.5.21.38-2.3,1.03-5.58,2.14-9.43,2.38-8.2,9.35-32.23,30.43-42.64,4.43-2.19,13.03-5.53,25.5-4.71h42c-.07,97.43-.14,194.86-.21,292.29-1.32,1.9-2.87,3.79-4.71,5.57-12.16,11.77-29.13,11.88-35.57,11.57.04,6.61.07,13.21.11,19.82,50.63-.23,101.26-.45,151.89-.68-.06-6.02-.12-12.05-.18-18.07-8.37-.49-23.93-2.76-37.39-14.04-2.82-2.36-5.21-4.83-7.21-7.25-.06-96.33-.12-192.67-.18-289,20.32-.07,40.64-.14,60.96-.21,8.68,4.36,14.89,9.27,18.86,12.86,5.43,4.91,18.24,16.79,22.71,35.79.76,3.24,1.11,5.95,1.29,7.71,5.71.14,11.43.29,17.14.43-.21-29.07-.43-58.14-.64-87.21-100.71.07-201.43.14-302.14.21Z"/>
  <path class="cls-12" d="M2133.25,260.03c.1,6.29.19,12.57.29,18.86,3.79.56,8.05,1.53,12.57,3.14,14.39,5.15,23.84,14.2,29,20.14.24,91.62.48,183.24.71,274.86-4.32,5.82-14.82,18.12-32,22.14-3.73.87-7.24,1.23-10.43,1.29.14,6.29.29,12.57.43,18.86,40.33.05,80.67.1,121,.14v-19.14c-2.26-.49-5.7-1.27-9.86-2.43-14.47-4.02-22.71-6.43-28.29-13.43-1.5-1.89-3.58-5.07-4.86-10-.05-77.4-.1-154.81-.14-232.21,74.43,92.71,148.86,185.43,223.29,278.14,10.71.07,21.43.14,32.14.21-.14-104.86-.29-209.71-.43-314.57.43-2.55,2.03-10,8.57-16.29,7.54-7.26,16.49-8.02,18.86-8.14,5.21-.21,10.43-.43,15.64-.64.07-6.5.14-13,.21-19.5h-124.71c.07,6.43.14,12.86.21,19.29,5.14-.09,25.2.16,39.73,15.09,4.42,4.54,7.27,9.35,9.12,13.41v216.86c-69.71-88.79-139.43-177.57-209.14-266.36-30.64.1-61.29.19-91.93.29Z"/>
  <path class="cls-5" d="M2543.53,261.32l.14,19.57c4.37.03,13.54.68,23.14,6.29,7.24,4.23,11.73,9.52,14.14,12.86.1,93.33.19,186.67.29,280-1.26,3.11-2.82,5.52-4.32,7.36-10.28,12.63-28.3,11.96-31.61,11.79-.02,6.71-.05,13.43-.07,20.14,90.38-.24,180.76-.48,271.14-.71,3.67-31.86,7.33-63.71,11-95.57-6.24-.05-12.48-.1-18.71-.14-1.89,8.13-5.79,20.19-14.43,32.57-14.46,20.73-33.55,29.99-42.29,33.57-34.77-.05-69.55-.1-104.32-.14.04-45.82.07-91.64.11-137.46l84.75.11c1.29.06,2.46.28,3.54.64,15.29,5.1,15.83,38.39,15.86,42.11h14.22c-.04-57.32-.08-113.65-.08-113.67h0c0-.06,0-.11,0-.11,0-.03-2.11-.03-9.56.05-.07,3.48-.54,7.37-1.72,11.48-5.32,18.49-21.24,28.06-26.64,31-26.81.05-53.62.1-80.43.14.02-44.19.05-88.38.07-132.57l113.07.14c1.23.28,2.42.62,3.57,1,24.7,8.2,35.29,39.33,39.46,55.43,3.14.07,6.29.14,9.43.21.04-28.57.07-57.14.11-85.71-89.95-.12-179.9-.24-269.86-.36Z"/>
  <path class="cls-4" d="M3083.61,351.89c-.21-25.14-.43-50.29-.64-75.43-5.28-2.91-10.99-5.73-17.14-8.36-10.52-4.49-36.09-15.13-69.64-15.43-14.6-.13-39.27-.35-66.5,13.36-10.42,5.24-39.41,20.36-53.93,53.5-2.34,5.34-7.84,19.24-8.36,37.93-.19,6.79-.47,23.4,7.71,41.79,1.42,3.19,7.08,15.38,19.29,27.64,44.12,44.32,125.79,41.34,150.64,89.57,6.42,12.46,6.33,23.06,6.21,26.14-.99,26.75-24.34,43.86-28.07,46.5-18.56,13.14-38.17,12.96-48.64,12.86-38.98-.37-65.35-23.57-70.93-28.71-24.56-22.63-31.37-50-33.36-60.08-3.19,0-6.38,0-9.57,0,.14,26.9.29,53.81.43,80.71,6.46,4.82,15.8,11.06,27.86,16.71,35.39,16.62,67.57,15.81,85.71,15.14,27.28-1,52.04-1.9,78.57-18,8.26-5.01,39.1-23.73,49.43-60,4.24-14.88,3.52-27.42,3.14-33.14,0,0-1.96-29.77-20.29-56.86-42.6-62.96-152.05-61.41-164.29-102.86-2.69-9.11-2-18.57-2-18.57,0-23.41,18.41-37.8,19.93-39.07,7.08-5.9,13.84-8.41,21.54-11.25,4.84-1.79,16-5.82,29.46-6.11,29.69-.63,50.91,17.36,52.79,19,23.19,20.29,25.81,47.51,26.23,53.21,4.8-.07,9.61-.14,14.41-.21Z"/>
  <path class="cls-3" d="M3145.11,259.64c-.07,5.54-.14,11.07-.21,16.61,6.51-.09,24.09.59,38.46,13.18,3.91,3.42,6.83,7.07,9,10.39.04,93.18.07,186.36.11,279.54-.96,1.82-2.02,3.47-3.12,4.95-11.96,16.08-33.53,18.4-42.31,18.84-.07,4.86-.14,9.71-.21,14.57,49.9-.08,99.81-.17,149.71-.25.05-6.19.1-12.38.14-18.57-5.11.63-16.45,1.3-28.57-4.57-6.61-3.2-11.29-7.3-14.29-10.43.19-94.81.38-189.62.57-284.43,3.13-4,9.08-10.57,18.57-15.71,9.62-5.21,18.49-6.59,23.57-7-.05-5.76-.1-11.52-.14-17.29-50.43.06-100.86.12-151.29.18Z"/>
  <path class="cls-10" d="M3694.32,598.75c-4.21.18-16.72.19-29.14-8.14-13.53-9.07-18.09-22.08-19.29-25.93-41.43-101.68-82.86-203.36-124.29-305.04-8.29.11-16.57.21-24.86.32-44.61,106.57-89.21,213.14-133.82,319.71-3.13,3.55-8.33,8.54-15.96,12.54-10.95,5.72-21.15,6.37-26.46,6.32-.07,6.25-.14,12.5-.21,18.75l118.39-.11c.04-6.29.07-12.57.11-18.86-3.26,0-21.05-.19-31.29-8.57-1.55-1.27-4.17-3.46-5.89-7.29-2.37-5.25-1.58-10.29-1.07-12.54,8.05-22.06,16.1-44.12,24.14-66.18,44.1.06,88.19.12,132.29.18,8.9,20.37,17.81,40.74,26.71,61.11,1.01,1.92,2.73,5.8,2.57,10.86,0,0-.11,3.57-1.43,7-2.59,6.75-17.22,13.54-37.29,15.29.1,6.38.19,12.76.29,19.14,48.9.14,97.81.29,146.71.43-.07-6.33-.14-12.67-.21-19ZM3435.53,478.03c19.24-46.29,38.48-92.57,57.71-138.86l52.86,138c-36.86.29-73.71.57-110.57.86Z"/>
</svg>