<?xml version="1.0" encoding="UTF-8"?>
<svg id="Layer_1" xmlns="http://www.w3.org/2000/svg" xmlns:xlink="http://www.w3.org/1999/xlink" viewBox="0 0 725.55 911.45">
  <defs>
    <style>
      .cls-1 {
        fill: url(#linear-gradient-2);
      }

      .cls-2 {
        fill: url(#linear-gradient-4);
      }

      .cls-3 {
        fill: url(#linear-gradient-3);
      }

      .cls-4 {
        fill: url(#linear-gradient-5);
      }

      .cls-5 {
        fill: url(#linear-gradient);
      }

      .cls-6 {
        fill: url(#New_Gradient_Swatch_1);
      }
    </style>
    <linearGradient id="linear-gradient" x1="519.13" y1="599.02" x2="719.27" y2="252.37" gradientTransform="translate(0 855.76) scale(1 -1)" gradientUnits="userSpaceOnUse">
      <stop offset=".26" stop-color="#fdd553"/>
      <stop offset="1" stop-color="#744c1e"/>
    </linearGradient>
    <linearGradient id="New_Gradient_Swatch_1" data-name="New Gradient Swatch 1" x1="145.36" y1="266.09" x2="506.93" y2="892.33" gradientUnits="userSpaceOnUse">
      <stop offset=".26" stop-color="#fdd553"/>
      <stop offset="1" stop-color="#744c1e"/>
    </linearGradient>
    <linearGradient id="linear-gradient-2" x1="305.44" y1="65.09" x2="404.35" y2="65.09" gradientTransform="translate(0 855.76) scale(1 -1)" gradientUnits="userSpaceOnUse">
      <stop offset=".26" stop-color="#fdd553"/>
      <stop offset="1" stop-color="#744c1e"/>
    </linearGradient>
    <linearGradient id="linear-gradient-3" x1="347.1" y1="91.38" x2="426.99" y2="91.38" gradientTransform="translate(0 855.76) scale(1 -1)" gradientUnits="userSpaceOnUse">
      <stop offset=".26" stop-color="#fdd553"/>
      <stop offset="1" stop-color="#744c1e"/>
    </linearGradient>
    <linearGradient id="linear-gradient-4" x1="316.54" y1="911.07" x2="316.91" y2="911.07" gradientUnits="userSpaceOnUse">
      <stop offset=".26" stop-color="#fdd553"/>
      <stop offset="1" stop-color="#744c1e"/>
    </linearGradient>
    <linearGradient id="linear-gradient-5" x1="0" y1="424.52" x2="477.28" y2="424.52" xlink:href="#linear-gradient-4"/>
  </defs>
  <path class="cls-5" d="M620.95,583.97c-.94,0-1.88,0-2.82-.02-26.86-.33-76.87-.94-119.84-37.06-22.93-19.27-40.16-45.6-49.82-76.15-5.5-17.38-8.43-37.04-8.71-58.44-.18-13.59.95-24.48,1.65-29.77,1.94-14.87,6.5-49.7,31.37-83.56,8.09-11.01,26.1-31.84,55.81-47.56,32.99-17.46,63.77-19.7,86.89-19.7,2.07,0,4.03.02,5.9.03,31.73.31,62.78,7.27,92.28,20.69l2.67,1.21-.86,75.58-20.46,2.34-.88-3.95c-2.06-9.19-10.66-40.23-34.79-53.89-10.66-6.03-25.29-9.2-25.44-9.23-6.57-1.4-13.76-2.14-20.8-2.14-1.91,0-3.84.05-5.72.16-6.19.36-27.95,2.5-47.95,15.13-31.03,19.59-40.33,53.7-46.49,76.28-9.17,33.63-5.75,62.03-3.71,78.99,1.24,10.31,2.94,24.43,9.39,41.76,5.43,14.58,12.87,34.55,32,51.64,26.27,23.48,57.94,26.35,70.34,26.5,1.51.02,3.11.04,4.79.04,14.76,0,32.04-1.65,48.24-13.88,21.84-16.48,27.07-41.31,28.3-51.21l.56-4.48,22.7,2.92-12.75,79.05-2.34.96c-28.88,11.8-58.99,17.78-89.49,17.78h-.01v-.02Z"/>
  <path class="cls-6" d="M489.4,556.33c-23.58-19.82-41.3-46.88-51.22-78.24-5.63-17.8-8.63-37.9-8.92-59.74-.03-2.69-.02-5.27.03-7.74-23.86-23.76-46.28-40-58.53-48.87-35.79-25.91-67.38-40.36-116.86-83.43-21.32-18.56-37.72-35.26-48.56-46.85-.82,2.85-1.45,5.7-1.91,8.54-10.69,66.51,74.64,130.89,107.06,153.41-24.87-11.65-53.33-27.42-82.86-48.86-17.44-12.65-32.72-25.45-46-37.71-.27,6.59.09,12.83.92,18.71,10.58,74.75,101.28,115.91,124.79,125.86-24.8-8.06-52.16-18.84-80.86-33.43-12.85-6.53-24.84-13.25-36-20,1.13,5.92,2.7,11.44,4.57,16.57,23.23,63.67,101.12,87.43,127.43,94.29-20.66-1.06-46.16-4.63-74-14-10.64-3.58-20.36-7.58-29.14-11.71,2.02,8.42,5,15.51,8.29,21.43,28.77,51.77,104.16,55.08,115.71,55.43-7.56,1.08-16.54,1.9-26.64,1.9-6.91,0-14.35-.39-22.22-1.33-13.28-1.59-24.81-4.42-34.29-7.43,2.87,7.74,6.54,13.93,10.29,18.86,21.92,28.85,60.87,33.71,84.84,33.71,9.84,0,17.15-.81,19.73-1.13-9.7,2.51-21.99,4.8-36.29,5.43-2.65.12-5.23.17-7.74.17-9.71,0-18.36-.8-25.69-1.88,2.51,4.73,5.35,8.71,8.29,12.07,18.22,20.81,46.79,25.24,68.04,25.24,12.43,0,22.35-1.52,26.24-2.16-7.5,2.63-17.26,5.28-28.86,6.57-5.14.57-9.98.8-14.43.8-4.21,0-8.09-.2-11.57-.51,2.14,3.43,4.48,6.35,6.88,8.85,14.97,15.59,36.73,19.23,53.94,19.23,11.37,0,20.75-1.58,24.89-2.36-5.98,2.88-14.07,6.05-24,8-7.23,1.42-13.74,1.86-19.16,1.86h-1.12c2,2.45,4.12,4.58,6.29,6.43,11.84,10.08,27.06,13.26,41.58,13.26,20.02,0,38.73-6.05,45.56-8.41-2.08,22.26-10.64,81.86-57.14,137.43-41.78,49.93-91.68,69.7-113.29,76.86,25.37-5.64,75.55-20.46,121.86-62.57,67.54-61.42,80.72-138.94,84.86-165.71,6.14-39.67,3.4-75.72-3.02-106.31-10.71-5.16-21.43-11.83-31.77-20.53Z"/>
  <path class="cls-1" d="M305.44,724.13c6.09-2.08,25.07-7.7,47.04-.11,21.56,7.45,32.64,23.01,37.17,29.55,15.84,22.91,14.92,46.62,14.54,52.45-2.04,31.37-21.37,50.74-26,55.14,1.96-4.89,18.62-48.67-7.07-90.86-22.06-36.23-59.21-44.8-65.68-46.18h0Z"/>
  <path class="cls-3" d="M347.11,712.02c6.31-1.77,32.41-8.35,53.57,5.79,26.45,17.68,35.9,61.54,14.57,102,.69-7.08,4.38-52.68-28.67-84.9-14.03-13.68-29.54-19.93-39.48-22.89h.01Z"/>
  <g>
    <path class="cls-2" d="M316.89,910.99c-.12.05-.23.11-.35.16.12-.03.25-.06.37-.09l-.02-.08Z"/>
    <path class="cls-4" d="M269.96,674.94c-3.43,0-6.61-.14-9.49-.36,22.79,20.72,42.45,26.33,56.57,27.43,1.94.15,3.8.22,5.59.22,15.72,0,26.34-5.22,42.06-5.22,4.56,0,9.55.44,15.21,1.57,7.48,1.49,24.32,4.85,37.71,17.71,20.55,19.73,20.15,49.47,20,60.86-.32,24.25-12.23,49.02-32.8,71.89,6.48-6.14,12.87-12.86,19.05-20.25,35.87-42.87,48.8-89.07,53.41-119.04-10.19,2.64-22.36,4.8-34.93,4.8-19.44,0-35.4-5.18-47.41-15.41-2.68-2.27-5.18-4.83-7.43-7.59l-7.85-9.62c-10.36-3.7-19.19-9.25-26.21-16.55-2.99-3.11-5.69-6.58-8.02-10.31l-4.07-6.51c-12.57-4.23-24.77-11.17-34.49-22.27-3.64-4.16-6.82-8.79-9.47-13.78l-6.25-11.79c-11.26-5.95-20.58-13.74-27.82-23.27-4.81-6.33-8.7-13.46-11.56-21.18l-6.4-17.27,1.61.51c-11.54-8.55-20.68-18.82-27.21-30.56-4.07-7.32-7.15-15.3-9.17-23.7l-4.37-18.21,16.95,7.97c5.03,2.36,10.16,4.58,15.34,6.63-22.16-15.4-41.76-36.16-51.91-63.97-2.12-5.79-3.79-11.83-4.96-17.96l-3.81-19.86,17.3,10.47c5.7,3.44,11.5,6.8,17.35,10.06-22.09-22.55-35.13-47.19-38.86-73.53-.94-6.67-1.28-13.51-1-20.34l.79-19.45,14.3,13.21c13.85,12.78,28.57,24.89,43.77,36.01-26.98-31.45-39.66-61.67-37.82-89.98-52.4-39.86-121.66-107.65-150.62-208.57C39.36,24.9,36.55,12.3,34.47.02v-.02c-7.76,15.27-12.44,29.82-15.14,43.14-24.64,121.51,96.83,230.54,114.86,246.29-25.29-14.08-60.68-38.05-92.86-77.14-16.73-20.33-28.88-40.22-37.71-57.43C.86,166.76-.14,177.84.01,188c1.51,102.37,120.32,170.05,139.9,180.86-27.87-11.01-62.22-28.38-96.57-56.29-12.7-10.32-23.79-20.77-33.43-30.86-.63,11.06.25,21.06,2,30,17.24,87.91,130.05,127.41,148,133.43-22.15-2.72-52.31-9.32-84.29-26-12.77-6.66-23.78-13.86-33.14-20.86,1.78,10.04,4.62,18.86,8,26.57,32.38,73.91,133.03,89.9,151.71,92.57-5.94.52-12.54.86-19.7.86-16.37,0-35.67-1.8-56.59-7.43-11.79-3.17-22.29-7.08-31.43-11.14,2.4,8.38,5.68,15.49,9.3,21.51,31.05,51.64,106.66,55.42,130.15,55.42,2.36,0,4.2-.04,5.41-.07-9.82,1.67-21.73,2.99-35.28,2.99-2.48,0-5-.05-7.58-.14-18.82-.68-34.82-3.81-47.14-7.14,5.76,9.03,22.31,32.32,54,46,17.78,7.68,34.56,9.83,47.9,9.83,11.67,0,20.72-1.64,25.53-2.68-8.11,2.47-18.45,4.82-30.57,5.71-3.55.26-6.99.38-10.29.38-11.94,0-22.15-1.53-30-3.24,5.23,7.62,18.54,24.78,42.57,34.86,13.36,5.61,26.18,7.41,37.17,7.41,15.55,0,27.43-3.61,31.97-5.12-7.58,3.15-17.84,6.53-30.29,8.29-6.29.89-12.12,1.22-17.36,1.22Z"/>
  </g>
</svg>